<svg width="1440" height="909" viewBox="0 0 1440 909" fill="none" xmlns="http://www.w3.org/2000/svg">
<g clip-path="url(#clip0_107_642)">
<rect width="1440" height="909" fill="black"/>
<g opacity="0.9" filter="url(#filter0_f_107_642)">
<ellipse cx="1119.85" cy="1727.96" rx="391" ry="380" transform="rotate(14.3321 1119.85 1727.96)" fill="#683039"/>
</g>
<g opacity="0.9" filter="url(#filter1_f_107_642)">
<ellipse cx="1049" cy="481" rx="391" ry="380" fill="#683039"/>
</g>
<g filter="url(#filter2_f_107_642)">
<ellipse cx="373" cy="1232" rx="246" ry="239" fill="#B88C30"/>
</g>
<path d="M147.826 231V215.49H153.194C154.939 215.49 156.413 215.791 157.616 216.392C158.833 216.993 159.75 217.873 160.366 219.032C160.997 220.176 161.312 221.577 161.312 223.234C161.312 224.877 160.997 226.277 160.366 227.436C159.75 228.595 158.833 229.482 157.616 230.098C156.413 230.699 154.939 231 153.194 231H147.826ZM150.114 229.086H153.062C155.057 229.086 156.538 228.602 157.506 227.634C158.489 226.666 158.98 225.199 158.98 223.234C158.98 221.269 158.489 219.809 157.506 218.856C156.538 217.888 155.057 217.404 153.062 217.404H150.114V229.086ZM164.214 231V219.912H166.436V231H164.214ZM164.038 217.602V215.292H166.612V217.602H164.038ZM173.498 231.198C172.574 231.198 171.724 231.081 170.946 230.846C170.169 230.611 169.524 230.281 169.01 229.856L169.692 228.338C170.235 228.749 170.836 229.057 171.496 229.262C172.156 229.467 172.831 229.57 173.52 229.57C174.327 229.57 174.936 229.431 175.346 229.152C175.757 228.859 175.962 228.463 175.962 227.964C175.962 227.583 175.83 227.275 175.566 227.04C175.317 226.805 174.899 226.629 174.312 226.512L172.2 226.094C171.262 225.889 170.55 225.537 170.066 225.038C169.582 224.539 169.34 223.901 169.34 223.124C169.34 222.464 169.516 221.877 169.868 221.364C170.235 220.851 170.748 220.447 171.408 220.154C172.083 219.861 172.868 219.714 173.762 219.714C174.584 219.714 175.346 219.831 176.05 220.066C176.754 220.301 177.341 220.638 177.81 221.078L177.106 222.552C176.652 222.171 176.138 221.877 175.566 221.672C174.994 221.452 174.415 221.342 173.828 221.342C173.007 221.342 172.398 221.496 172.002 221.804C171.606 222.112 171.408 222.515 171.408 223.014C171.408 223.395 171.526 223.711 171.76 223.96C172.01 224.195 172.398 224.378 172.926 224.51L175.038 224.928C176.036 225.133 176.784 225.471 177.282 225.94C177.781 226.409 178.03 227.04 178.03 227.832C178.03 228.521 177.84 229.123 177.458 229.636C177.077 230.149 176.549 230.538 175.874 230.802C175.2 231.066 174.408 231.198 173.498 231.198ZM184.854 231.198C183.651 231.198 182.742 230.875 182.126 230.23C181.51 229.57 181.202 228.587 181.202 227.282V221.628H179.046V219.912H181.202V216.986L183.424 216.392V219.912H186.504V221.628H183.424V227.084C183.424 227.905 183.571 228.492 183.864 228.844C184.157 229.196 184.583 229.372 185.14 229.372C185.419 229.372 185.661 229.35 185.866 229.306C186.086 229.247 186.284 229.181 186.46 229.108V230.912C186.24 231 185.983 231.066 185.69 231.11C185.397 231.169 185.118 231.198 184.854 231.198ZM188.49 231V222.662C188.49 222.207 188.476 221.753 188.446 221.298C188.432 220.829 188.402 220.367 188.358 219.912H190.514L190.756 222.772H190.404C190.551 222.083 190.8 221.511 191.152 221.056C191.504 220.601 191.93 220.264 192.428 220.044C192.942 219.824 193.477 219.714 194.034 219.714C194.269 219.714 194.467 219.729 194.628 219.758C194.79 219.773 194.951 219.802 195.112 219.846L195.09 221.826C194.841 221.723 194.621 221.665 194.43 221.65C194.254 221.621 194.034 221.606 193.77 221.606C193.125 221.606 192.575 221.753 192.12 222.046C191.666 222.325 191.321 222.706 191.086 223.19C190.852 223.674 190.734 224.195 190.734 224.752V231H188.49ZM196.827 231V219.912H199.049V231H196.827ZM196.651 217.602V215.292H199.225V217.602H196.651ZM208.224 231.198C207.256 231.198 206.412 230.956 205.694 230.472C204.975 229.988 204.498 229.328 204.264 228.492H204.506V231H202.306V214.808H204.528V222.376H204.264C204.513 221.555 204.99 220.909 205.694 220.44C206.412 219.956 207.256 219.714 208.224 219.714C209.206 219.714 210.064 219.949 210.798 220.418C211.531 220.873 212.096 221.533 212.492 222.398C212.902 223.249 213.108 224.275 213.108 225.478C213.108 226.666 212.902 227.693 212.492 228.558C212.096 229.409 211.524 230.061 210.776 230.516C210.042 230.971 209.192 231.198 208.224 231.198ZM207.674 229.46C208.627 229.46 209.397 229.13 209.984 228.47C210.57 227.795 210.864 226.798 210.864 225.478C210.864 224.143 210.57 223.146 209.984 222.486C209.397 221.811 208.627 221.474 207.674 221.474C206.706 221.474 205.928 221.811 205.342 222.486C204.77 223.146 204.484 224.136 204.484 225.456C204.484 226.776 204.77 227.773 205.342 228.448C205.928 229.123 206.706 229.46 207.674 229.46ZM219.65 231.198C218.315 231.198 217.311 230.839 216.636 230.12C215.976 229.387 215.646 228.265 215.646 226.754V219.912H217.868V226.71C217.868 227.634 218.059 228.316 218.44 228.756C218.821 229.196 219.401 229.416 220.178 229.416C221.058 229.416 221.769 229.123 222.312 228.536C222.855 227.949 223.126 227.172 223.126 226.204V219.912H225.348V231H223.192V228.624H223.478C223.17 229.445 222.679 230.083 222.004 230.538C221.329 230.978 220.545 231.198 219.65 231.198ZM232.915 231.198C231.712 231.198 230.803 230.875 230.187 230.23C229.571 229.57 229.263 228.587 229.263 227.282V221.628H227.107V219.912H229.263V216.986L231.485 216.392V219.912H234.565V221.628H231.485V227.084C231.485 227.905 231.631 228.492 231.925 228.844C232.218 229.196 232.643 229.372 233.201 229.372C233.479 229.372 233.721 229.35 233.927 229.306C234.147 229.247 234.345 229.181 234.521 229.108V230.912C234.301 231 234.044 231.066 233.751 231.11C233.457 231.169 233.179 231.198 232.915 231.198ZM241.239 231.198C240.139 231.198 239.186 230.971 238.379 230.516C237.573 230.047 236.949 229.387 236.509 228.536C236.069 227.671 235.849 226.644 235.849 225.456C235.849 224.268 236.069 223.249 236.509 222.398C236.949 221.533 237.573 220.873 238.379 220.418C239.186 219.949 240.139 219.714 241.239 219.714C242.339 219.714 243.293 219.949 244.099 220.418C244.921 220.873 245.551 221.533 245.991 222.398C246.446 223.249 246.673 224.268 246.673 225.456C246.673 226.644 246.446 227.671 245.991 228.536C245.551 229.387 244.921 230.047 244.099 230.516C243.293 230.971 242.339 231.198 241.239 231.198ZM241.239 229.46C242.207 229.46 242.977 229.123 243.549 228.448C244.121 227.773 244.407 226.776 244.407 225.456C244.407 224.136 244.121 223.146 243.549 222.486C242.977 221.811 242.207 221.474 241.239 221.474C240.286 221.474 239.523 221.811 238.951 222.486C238.379 223.146 238.093 224.136 238.093 225.456C238.093 226.776 238.372 227.773 238.929 228.448C239.501 229.123 240.271 229.46 241.239 229.46ZM249.227 231V222.662C249.227 222.207 249.212 221.753 249.183 221.298C249.168 220.829 249.139 220.367 249.095 219.912H251.251L251.493 222.772H251.141C251.287 222.083 251.537 221.511 251.889 221.056C252.241 220.601 252.666 220.264 253.165 220.044C253.678 219.824 254.213 219.714 254.771 219.714C255.005 219.714 255.203 219.729 255.365 219.758C255.526 219.773 255.687 219.802 255.849 219.846L255.827 221.826C255.577 221.723 255.357 221.665 255.167 221.65C254.991 221.621 254.771 221.606 254.507 221.606C253.861 221.606 253.311 221.753 252.857 222.046C252.402 222.325 252.057 222.706 251.823 223.19C251.588 223.674 251.471 224.195 251.471 224.752V231H249.227ZM261.262 231.198C260.338 231.198 259.487 231.081 258.71 230.846C257.933 230.611 257.287 230.281 256.774 229.856L257.456 228.338C257.999 228.749 258.6 229.057 259.26 229.262C259.92 229.467 260.595 229.57 261.284 229.57C262.091 229.57 262.699 229.431 263.11 229.152C263.521 228.859 263.726 228.463 263.726 227.964C263.726 227.583 263.594 227.275 263.33 227.04C263.081 226.805 262.663 226.629 262.076 226.512L259.964 226.094C259.025 225.889 258.314 225.537 257.83 225.038C257.346 224.539 257.104 223.901 257.104 223.124C257.104 222.464 257.28 221.877 257.632 221.364C257.999 220.851 258.512 220.447 259.172 220.154C259.847 219.861 260.631 219.714 261.526 219.714C262.347 219.714 263.11 219.831 263.814 220.066C264.518 220.301 265.105 220.638 265.574 221.078L264.87 222.552C264.415 222.171 263.902 221.877 263.33 221.672C262.758 221.452 262.179 221.342 261.592 221.342C260.771 221.342 260.162 221.496 259.766 221.804C259.37 222.112 259.172 222.515 259.172 223.014C259.172 223.395 259.289 223.711 259.524 223.96C259.773 224.195 260.162 224.378 260.69 224.51L262.802 224.928C263.799 225.133 264.547 225.471 265.046 225.94C265.545 226.409 265.794 227.04 265.794 227.832C265.794 228.521 265.603 229.123 265.222 229.636C264.841 230.149 264.313 230.538 263.638 230.802C262.963 231.066 262.171 231.198 261.262 231.198ZM287.06 231.198C286.386 230.934 285.748 230.589 285.146 230.164C284.545 229.739 284.017 229.306 283.562 228.866L284.068 228.888C283.423 229.607 282.653 230.171 281.758 230.582C280.864 230.993 279.903 231.198 278.876 231.198C277.776 231.198 276.83 231.029 276.038 230.692C275.261 230.355 274.66 229.885 274.234 229.284C273.824 228.683 273.618 227.979 273.618 227.172C273.618 226.16 273.912 225.302 274.498 224.598C275.085 223.894 275.906 223.212 276.962 222.552L277.688 222.112L277.358 222.53C276.698 221.841 276.214 221.21 275.906 220.638C275.598 220.051 275.444 219.443 275.444 218.812C275.444 218.108 275.613 217.492 275.95 216.964C276.288 216.436 276.757 216.025 277.358 215.732C277.974 215.439 278.7 215.292 279.536 215.292C280.607 215.292 281.48 215.585 282.154 216.172C282.844 216.744 283.188 217.536 283.188 218.548C283.188 219.076 283.078 219.582 282.858 220.066C282.653 220.535 282.301 220.99 281.802 221.43C281.318 221.87 280.658 222.332 279.822 222.816L279.888 222.354L283.958 226.688H283.496C283.878 226.072 284.171 225.346 284.376 224.51C284.582 223.659 284.706 222.757 284.75 221.804H286.642C286.613 223.021 286.437 224.165 286.114 225.236C285.792 226.292 285.359 227.223 284.816 228.03L284.794 227.436C285.176 227.847 285.63 228.243 286.158 228.624C286.686 229.005 287.258 229.328 287.874 229.592L287.06 231.198ZM278.964 229.438C279.786 229.438 280.512 229.284 281.142 228.976C281.788 228.653 282.345 228.184 282.814 227.568L282.77 228.14L278.062 223.234L278.942 223.256L278.282 223.652C277.725 224.004 277.263 224.356 276.896 224.708C276.53 225.045 276.258 225.397 276.082 225.764C275.906 226.131 275.818 226.556 275.818 227.04C275.818 227.788 276.082 228.375 276.61 228.8C277.153 229.225 277.938 229.438 278.964 229.438ZM279.536 216.854C278.92 216.854 278.422 217.03 278.04 217.382C277.674 217.734 277.49 218.203 277.49 218.79C277.49 219.083 277.542 219.362 277.644 219.626C277.747 219.89 277.923 220.183 278.172 220.506C278.422 220.814 278.759 221.195 279.184 221.65L278.612 221.694C279.58 221.137 280.284 220.631 280.724 220.176C281.164 219.721 281.384 219.208 281.384 218.636C281.384 218.093 281.216 217.661 280.878 217.338C280.541 217.015 280.094 216.854 279.536 216.854ZM298.97 231V217.404H293.668V215.49H306.56V217.404H301.258V231H298.97ZM306.762 231V222.662C306.762 222.207 306.747 221.753 306.718 221.298C306.703 220.829 306.674 220.367 306.63 219.912H308.786L309.028 222.772H308.676C308.822 222.083 309.072 221.511 309.424 221.056C309.776 220.601 310.201 220.264 310.7 220.044C311.213 219.824 311.748 219.714 312.306 219.714C312.54 219.714 312.738 219.729 312.9 219.758C313.061 219.773 313.222 219.802 313.384 219.846L313.362 221.826C313.112 221.723 312.892 221.665 312.702 221.65C312.526 221.621 312.306 221.606 312.042 221.606C311.396 221.606 310.846 221.753 310.392 222.046C309.937 222.325 309.592 222.706 309.358 223.19C309.123 223.674 309.006 224.195 309.006 224.752V231H306.762ZM319.237 231.198C318.255 231.198 317.397 230.971 316.663 230.516C315.93 230.061 315.358 229.401 314.947 228.536C314.551 227.671 314.353 226.644 314.353 225.456C314.353 224.253 314.551 223.227 314.947 222.376C315.358 221.525 315.93 220.873 316.663 220.418C317.397 219.949 318.255 219.714 319.237 219.714C320.205 219.714 321.049 219.956 321.767 220.44C322.486 220.924 322.963 221.584 323.197 222.42H322.955L323.175 219.912H325.331C325.287 220.367 325.243 220.821 325.199 221.276C325.17 221.716 325.155 222.149 325.155 222.574V231H322.933V228.536H323.175C322.941 229.357 322.457 230.01 321.723 230.494C321.005 230.963 320.176 231.198 319.237 231.198ZM319.787 229.46C320.741 229.46 321.503 229.123 322.075 228.448C322.662 227.773 322.955 226.776 322.955 225.456C322.955 224.136 322.662 223.146 322.075 222.486C321.503 221.811 320.741 221.474 319.787 221.474C318.819 221.474 318.042 221.811 317.455 222.486C316.883 223.146 316.597 224.136 316.597 225.456C316.597 226.776 316.883 227.773 317.455 228.448C318.027 229.123 318.805 229.46 319.787 229.46ZM328.398 231V222.574C328.398 222.149 328.376 221.716 328.332 221.276C328.302 220.821 328.266 220.367 328.222 219.912H330.378L330.576 222.244H330.312C330.649 221.423 331.17 220.799 331.874 220.374C332.578 219.934 333.392 219.714 334.316 219.714C335.621 219.714 336.604 220.073 337.264 220.792C337.938 221.511 338.276 222.625 338.276 224.136V231H336.054V224.268C336.054 223.285 335.856 222.581 335.46 222.156C335.078 221.716 334.492 221.496 333.7 221.496C332.761 221.496 332.013 221.789 331.456 222.376C330.898 222.948 330.62 223.725 330.62 224.708V231H328.398ZM345.245 231.198C344.321 231.198 343.47 231.081 342.693 230.846C341.915 230.611 341.27 230.281 340.757 229.856L341.439 228.338C341.981 228.749 342.583 229.057 343.243 229.262C343.903 229.467 344.577 229.57 345.267 229.57C346.073 229.57 346.682 229.431 347.093 229.152C347.503 228.859 347.709 228.463 347.709 227.964C347.709 227.583 347.577 227.275 347.313 227.04C347.063 226.805 346.645 226.629 346.059 226.512L343.947 226.094C343.008 225.889 342.297 225.537 341.813 225.038C341.329 224.539 341.087 223.901 341.087 223.124C341.087 222.464 341.263 221.877 341.615 221.364C341.981 220.851 342.495 220.447 343.155 220.154C343.829 219.861 344.614 219.714 345.509 219.714C346.33 219.714 347.093 219.831 347.797 220.066C348.501 220.301 349.087 220.638 349.557 221.078L348.853 222.552C348.398 222.171 347.885 221.877 347.313 221.672C346.741 221.452 346.161 221.342 345.575 221.342C344.753 221.342 344.145 221.496 343.749 221.804C343.353 222.112 343.155 222.515 343.155 223.014C343.155 223.395 343.272 223.711 343.507 223.96C343.756 224.195 344.145 224.378 344.673 224.51L346.785 224.928C347.782 225.133 348.53 225.471 349.029 225.94C349.527 226.409 349.777 227.04 349.777 227.832C349.777 228.521 349.586 229.123 349.205 229.636C348.823 230.149 348.295 230.538 347.621 230.802C346.946 231.066 346.154 231.198 345.245 231.198ZM352.396 235.752V222.574C352.396 222.149 352.374 221.716 352.33 221.276C352.3 220.821 352.264 220.367 352.22 219.912H354.376L354.596 222.42H354.354C354.588 221.584 355.058 220.924 355.762 220.44C356.48 219.956 357.331 219.714 358.314 219.714C359.296 219.714 360.154 219.949 360.888 220.418C361.621 220.873 362.186 221.525 362.582 222.376C362.992 223.227 363.198 224.253 363.198 225.456C363.198 226.644 362.992 227.671 362.582 228.536C362.186 229.401 361.621 230.061 360.888 230.516C360.154 230.971 359.296 231.198 358.314 231.198C357.346 231.198 356.502 230.963 355.784 230.494C355.08 230.01 354.61 229.357 354.376 228.536H354.618V235.752H352.396ZM357.764 229.46C358.732 229.46 359.502 229.123 360.074 228.448C360.66 227.773 360.954 226.776 360.954 225.456C360.954 224.136 360.66 223.146 360.074 222.486C359.502 221.811 358.732 221.474 357.764 221.474C356.796 221.474 356.018 221.811 355.432 222.486C354.86 223.146 354.574 224.136 354.574 225.456C354.574 226.776 354.86 227.773 355.432 228.448C356.018 229.123 356.796 229.46 357.764 229.46ZM370.554 231.198C369.454 231.198 368.5 230.971 367.694 230.516C366.887 230.047 366.264 229.387 365.824 228.536C365.384 227.671 365.164 226.644 365.164 225.456C365.164 224.268 365.384 223.249 365.824 222.398C366.264 221.533 366.887 220.873 367.694 220.418C368.5 219.949 369.454 219.714 370.554 219.714C371.654 219.714 372.607 219.949 373.414 220.418C374.235 220.873 374.866 221.533 375.306 222.398C375.76 223.249 375.988 224.268 375.988 225.456C375.988 226.644 375.76 227.671 375.306 228.536C374.866 229.387 374.235 230.047 373.414 230.516C372.607 230.971 371.654 231.198 370.554 231.198ZM370.554 229.46C371.522 229.46 372.292 229.123 372.864 228.448C373.436 227.773 373.722 226.776 373.722 225.456C373.722 224.136 373.436 223.146 372.864 222.486C372.292 221.811 371.522 221.474 370.554 221.474C369.6 221.474 368.838 221.811 368.266 222.486C367.694 223.146 367.408 224.136 367.408 225.456C367.408 226.776 367.686 227.773 368.244 228.448C368.816 229.123 369.586 229.46 370.554 229.46ZM378.541 231V222.662C378.541 222.207 378.526 221.753 378.497 221.298C378.482 220.829 378.453 220.367 378.409 219.912H380.565L380.807 222.772H380.455C380.602 222.083 380.851 221.511 381.203 221.056C381.555 220.601 381.98 220.264 382.479 220.044C382.992 219.824 383.528 219.714 384.085 219.714C384.32 219.714 384.518 219.729 384.679 219.758C384.84 219.773 385.002 219.802 385.163 219.846L385.141 221.826C384.892 221.723 384.672 221.665 384.481 221.65C384.305 221.621 384.085 221.606 383.821 221.606C383.176 221.606 382.626 221.753 382.171 222.046C381.716 222.325 381.372 222.706 381.137 223.19C380.902 223.674 380.785 224.195 380.785 224.752V231H378.541ZM391.792 231.198C390.589 231.198 389.68 230.875 389.064 230.23C388.448 229.57 388.14 228.587 388.14 227.282V221.628H385.984V219.912H388.14V216.986L390.362 216.392V219.912H393.442V221.628H390.362V227.084C390.362 227.905 390.508 228.492 390.802 228.844C391.095 229.196 391.52 229.372 392.078 229.372C392.356 229.372 392.598 229.35 392.804 229.306C393.024 229.247 393.222 229.181 393.398 229.108V230.912C393.178 231 392.921 231.066 392.628 231.11C392.334 231.169 392.056 231.198 391.792 231.198ZM400.49 231.198C398.701 231.198 397.293 230.692 396.266 229.68C395.24 228.668 394.726 227.267 394.726 225.478C394.726 224.319 394.946 223.307 395.386 222.442C395.841 221.577 396.464 220.909 397.256 220.44C398.063 219.956 398.994 219.714 400.05 219.714C401.092 219.714 401.964 219.934 402.668 220.374C403.372 220.814 403.908 221.437 404.274 222.244C404.641 223.036 404.824 223.975 404.824 225.06V225.764H396.464V224.488H403.306L402.932 224.774C402.932 223.674 402.683 222.823 402.184 222.222C401.7 221.606 400.996 221.298 400.072 221.298C399.046 221.298 398.254 221.657 397.696 222.376C397.139 223.08 396.86 224.055 396.86 225.302V225.522C396.86 226.827 397.176 227.81 397.806 228.47C398.452 229.13 399.361 229.46 400.534 229.46C401.18 229.46 401.781 229.372 402.338 229.196C402.91 229.005 403.453 228.697 403.966 228.272L404.692 229.79C404.179 230.245 403.556 230.597 402.822 230.846C402.089 231.081 401.312 231.198 400.49 231.198ZM407.33 231V222.662C407.33 222.207 407.315 221.753 407.286 221.298C407.271 220.829 407.242 220.367 407.198 219.912H409.354L409.596 222.772H409.244C409.391 222.083 409.64 221.511 409.992 221.056C410.344 220.601 410.769 220.264 411.268 220.044C411.781 219.824 412.317 219.714 412.874 219.714C413.109 219.714 413.307 219.729 413.468 219.758C413.629 219.773 413.791 219.802 413.952 219.846L413.93 221.826C413.681 221.723 413.461 221.665 413.27 221.65C413.094 221.621 412.874 221.606 412.61 221.606C411.965 221.606 411.415 221.753 410.96 222.046C410.505 222.325 410.161 222.706 409.926 223.19C409.691 223.674 409.574 224.195 409.574 224.752V231H407.33ZM419.366 231.198C418.442 231.198 417.591 231.081 416.814 230.846C416.036 230.611 415.391 230.281 414.878 229.856L415.56 228.338C416.102 228.749 416.704 229.057 417.364 229.262C418.024 229.467 418.698 229.57 419.388 229.57C420.194 229.57 420.803 229.431 421.214 229.152C421.624 228.859 421.83 228.463 421.83 227.964C421.83 227.583 421.698 227.275 421.434 227.04C421.184 226.805 420.766 226.629 420.18 226.512L418.068 226.094C417.129 225.889 416.418 225.537 415.934 225.038C415.45 224.539 415.208 223.901 415.208 223.124C415.208 222.464 415.384 221.877 415.736 221.364C416.102 220.851 416.616 220.447 417.276 220.154C417.95 219.861 418.735 219.714 419.63 219.714C420.451 219.714 421.214 219.831 421.918 220.066C422.622 220.301 423.208 220.638 423.678 221.078L422.974 222.552C422.519 222.171 422.006 221.877 421.434 221.672C420.862 221.452 420.282 221.342 419.696 221.342C418.874 221.342 418.266 221.496 417.87 221.804C417.474 222.112 417.276 222.515 417.276 223.014C417.276 223.395 417.393 223.711 417.628 223.96C417.877 224.195 418.266 224.378 418.794 224.51L420.906 224.928C421.903 225.133 422.651 225.471 423.15 225.94C423.648 226.409 423.898 227.04 423.898 227.832C423.898 228.521 423.707 229.123 423.326 229.636C422.944 230.149 422.416 230.538 421.742 230.802C421.067 231.066 420.275 231.198 419.366 231.198Z" fill="black"/>
</g>
<defs>
<filter id="filter0_f_107_642" x="182.42" y="800.186" width="1874.85" height="1855.55" filterUnits="userSpaceOnUse" color-interpolation-filters="sRGB">
<feFlood flood-opacity="0" result="BackgroundImageFix"/>
<feBlend mode="normal" in="SourceGraphic" in2="BackgroundImageFix" result="shape"/>
<feGaussianBlur stdDeviation="273.5" result="effect1_foregroundBlur_107_642"/>
</filter>
<filter id="filter1_f_107_642" x="111" y="-446" width="1876" height="1854" filterUnits="userSpaceOnUse" color-interpolation-filters="sRGB">
<feFlood flood-opacity="0" result="BackgroundImageFix"/>
<feBlend mode="normal" in="SourceGraphic" in2="BackgroundImageFix" result="shape"/>
<feGaussianBlur stdDeviation="273.5" result="effect1_foregroundBlur_107_642"/>
</filter>
<filter id="filter2_f_107_642" x="-382" y="484" width="1510" height="1496" filterUnits="userSpaceOnUse" color-interpolation-filters="sRGB">
<feFlood flood-opacity="0" result="BackgroundImageFix"/>
<feBlend mode="normal" in="SourceGraphic" in2="BackgroundImageFix" result="shape"/>
<feGaussianBlur stdDeviation="254.5" result="effect1_foregroundBlur_107_642"/>
</filter>
<clipPath id="clip0_107_642">
<rect width="1440" height="909" fill="white"/>
</clipPath>
</defs>
</svg>
