<svg width="63" height="63" viewBox="0 0 63 63" fill="none" xmlns="http://www.w3.org/2000/svg">
<circle cx="31.5" cy="31.5" r="31.5" fill="#B88C30"/>
<path d="M19.3751 19.1988C19.1851 19.2046 18.9982 19.246 18.8256 19.3207C18.653 19.3953 18.4981 19.5017 18.3701 19.6334C18.2422 19.7652 18.1437 19.9196 18.0806 20.0876C18.0175 20.2557 17.991 20.4338 18.0027 20.6116C18.1926 23.6609 19.0876 31.1011 23.3731 35.7411C28.5048 41.3314 35.188 43.2575 42.0447 42.9729C42.4123 42.9523 42.7578 42.8019 43.0115 42.5519C43.2653 42.3019 43.4083 41.9711 43.4118 41.6261V36.7422C43.4075 36.2866 43.2399 35.8454 42.9359 35.4897C42.632 35.1339 42.2092 34.8842 41.7355 34.7805L38.3017 34.069C37.877 33.9842 37.4349 34.0207 37.0326 34.1739C36.6303 34.327 36.2863 34.5897 36.0451 34.9279L35.2856 36.0053C35.2159 36.1039 35.1117 36.1766 34.9909 36.211C34.8701 36.2453 34.7403 36.2391 34.6238 36.1934C32.8771 35.487 25.9173 32.4377 25.1524 27.2946C25.1374 27.1953 25.1541 27.094 25.2005 27.0036C25.2468 26.9131 25.3207 26.8376 25.4128 26.7864L26.7906 25.9987C27.1686 25.7792 27.4654 25.4563 27.641 25.0737C27.8166 24.691 27.8625 24.267 27.7725 23.8591L27.0185 20.5862C26.9082 20.1277 26.6318 19.719 26.2362 19.4299C25.8405 19.1408 25.3502 18.9891 24.8486 19.0006L19.3751 19.1988Z" stroke="white" stroke-width="2"/>
</svg>
