<svg width="50" height="50" viewBox="0 0 50 50" fill="none" xmlns="http://www.w3.org/2000/svg">
<path fill-rule="evenodd" clip-rule="evenodd" d="M39.2733 13.44C39.4514 13.2621 39.5928 13.0508 39.6893 12.8182C39.7858 12.5856 39.8356 12.3363 39.8357 12.0845C39.8359 11.8327 39.7864 11.5833 39.6902 11.3507C39.594 11.118 39.4529 10.9065 39.275 10.7283C39.097 10.5502 38.8857 10.4088 38.6532 10.3123C38.4206 10.2158 38.1713 10.1661 37.9195 10.1659C37.6677 10.1657 37.4183 10.2152 37.1856 10.3114C36.9529 10.4076 36.7414 10.5487 36.5633 10.7267L25 22.29L13.44 10.7267C13.0801 10.3669 12.5921 10.1647 12.0833 10.1647C11.5744 10.1647 11.0864 10.3669 10.7266 10.7267C10.3668 11.0865 10.1647 11.5745 10.1647 12.0833C10.1647 12.5922 10.3668 13.0802 10.7266 13.44L22.29 25L10.7266 36.56C10.5485 36.7382 10.4071 36.9497 10.3107 37.1824C10.2143 37.4152 10.1647 37.6647 10.1647 37.9167C10.1647 38.1686 10.2143 38.4181 10.3107 38.6509C10.4071 38.8837 10.5485 39.0952 10.7266 39.2733C11.0864 39.6331 11.5744 39.8353 12.0833 39.8353C12.3352 39.8353 12.5847 39.7857 12.8175 39.6892C13.0503 39.5928 13.2618 39.4515 13.44 39.2733L25 27.71L36.5633 39.2733C36.9231 39.6327 37.4109 39.8344 37.9195 39.8341C38.428 39.8338 38.9156 39.6315 39.275 39.2717C39.6343 38.9119 39.836 38.424 39.8357 37.9155C39.8354 37.407 39.6331 36.9194 39.2733 36.56L27.71 25L39.2733 13.44Z" fill="black"/>
</svg>
