<svg width="63" height="63" viewBox="0 0 63 63" fill="none" xmlns="http://www.w3.org/2000/svg">
<circle cx="31.5" cy="31.5" r="31.5" fill="#B88C30"/>
<path d="M31.5 14C25.151 14 20 18.9027 20 24.941C20 31.8889 27.6667 42.8993 30.4818 46.7023C30.5986 46.8629 30.7518 46.9935 30.9287 47.0836C31.1057 47.1736 31.3014 47.2206 31.5 47.2206C31.6986 47.2206 31.8943 47.1736 32.0713 47.0836C32.2482 46.9935 32.4014 46.8629 32.5182 46.7023C35.3333 42.9009 43 31.8945 43 24.941C43 18.9027 37.849 14 31.5 14Z" stroke="white" stroke-width="2.55556" stroke-linecap="round" stroke-linejoin="round"/>
<path d="M31.5001 29.3333C33.6172 29.3333 35.3334 27.6171 35.3334 25.5C35.3334 23.3829 33.6172 21.6667 31.5001 21.6667C29.383 21.6667 27.6667 23.3829 27.6667 25.5C27.6667 27.6171 29.383 29.3333 31.5001 29.3333Z" stroke="white" stroke-width="2.55556" stroke-linecap="round" stroke-linejoin="round"/>
</svg>
