<svg width="15" height="20" viewBox="0 0 15 20" fill="none" xmlns="http://www.w3.org/2000/svg">
<path d="M-0.000104904 1.00057L-0.000104904 19.0006C0.000466347 19.1828 0.0507298 19.3615 0.145273 19.5173C0.239817 19.673 0.37506 19.8001 0.536448 19.8848C0.697835 19.9694 0.879255 20.0085 1.06118 19.9977C1.2431 19.9869 1.41864 19.9267 1.5689 19.8236L14.5689 10.8236C15.1079 10.4506 15.1079 9.55257 14.5689 9.17857L1.5689 0.178574C1.41895 0.0743986 1.24333 0.0133079 1.0611 0.00193892C0.878874 -0.00943004 0.697017 0.0293576 0.535288 0.114088C0.373559 0.198818 0.238141 0.32625 0.143751 0.482538C0.0493612 0.638826 -0.000392914 0.817994 -0.000104904 1.00057Z" fill="white"/>
</svg>
